<svg width="38" height="33" viewBox="0 0 38 33" fill="none" xmlns="http://www.w3.org/2000/svg">
<path d="M33.875 13.6786H32.464L30.8906 6.1036L30.8906 6.10359L30.8885 6.09395C30.64 4.97192 30.0499 4.04572 29.1374 3.34045C28.2288 2.63829 27.1814 2.28571 26.0225 2.28571H23.8322C23.7415 2.09669 23.6155 1.92384 23.4581 1.77042C23.111 1.43203 22.6753 1.25 22.1875 1.25H15.8125C15.3247 1.25 14.8891 1.43203 14.5419 1.77042C14.3845 1.92384 14.2585 2.09669 14.1678 2.28571H11.9775C10.8186 2.28571 9.77117 2.63829 8.86265 3.34045L9.32129 3.93387L8.86265 3.34045C7.95012 4.04572 7.36002 4.97192 7.1115 6.09395L7.11143 6.09394L7.10943 6.1036L5.53595 13.6786H4.125C3.34545 13.6786 2.65602 13.9554 2.09904 14.4984C1.54142 15.0419 1.25 15.7229 1.25 16.5C1.25 17.2771 1.54142 17.9581 2.09904 18.5016C2.56289 18.9538 3.11861 19.2214 3.74173 19.2983L5.54484 29.4162L5.54486 29.4163C5.66563 30.0932 6.00551 30.6618 6.54079 31.0966C7.0717 31.5279 7.69211 31.75 8.375 31.75H29.625C30.3079 31.75 30.9283 31.5279 31.4592 31.0966C31.9945 30.6618 32.3344 30.0932 32.4551 29.4163L32.4552 29.4162L34.2583 19.2983C34.8814 19.2214 35.4371 18.9538 35.901 18.5016C36.4586 17.9581 36.75 17.2771 36.75 16.5C36.75 15.7229 36.4586 15.0419 35.901 14.4984C35.344 13.9554 34.6545 13.6786 33.875 13.6786ZM28.7443 13.6786H9.25566L10.6332 6.89505C10.7158 6.58615 10.8752 6.34451 11.123 6.14845C11.3692 5.95374 11.6442 5.85714 11.9775 5.85714H14.1678C14.2585 6.04616 14.3845 6.21901 14.5419 6.37244C14.8891 6.71082 15.3247 6.89286 15.8125 6.89286H22.1875C22.6753 6.89286 23.111 6.71082 23.4581 6.37244C23.6155 6.21901 23.7415 6.04616 23.8322 5.85714H26.0225C26.3558 5.85714 26.6308 5.95374 26.877 6.14845C27.1248 6.34451 27.2842 6.58614 27.3668 6.89503L28.7443 13.6786ZM16.0361 19.416L16.5596 18.8789L16.0361 19.416C16.1091 19.4872 16.125 19.5392 16.125 19.6071V26.3393C16.125 26.4072 16.1091 26.4592 16.0361 26.5305C15.9626 26.602 15.9002 26.625 15.8125 26.625C15.7248 26.625 15.6624 26.602 15.5889 26.5305C15.5159 26.4592 15.5 26.4072 15.5 26.3393V19.6071C15.5 19.5392 15.5159 19.4872 15.5889 19.416C15.6624 19.3444 15.7248 19.3214 15.8125 19.3214C15.9002 19.3214 15.9626 19.3444 16.0361 19.416ZM22.411 19.416L22.9346 18.8789L22.4111 19.416C22.4841 19.4872 22.5 19.5392 22.5 19.6071V26.3393C22.5 26.4072 22.4841 26.4592 22.4111 26.5305C22.3376 26.602 22.2752 26.625 22.1875 26.625C22.0998 26.625 22.0374 26.602 21.964 26.5305C21.8909 26.4592 21.875 26.4072 21.875 26.3393V19.6071C21.875 19.5392 21.8909 19.4872 21.9639 19.416C22.0374 19.3444 22.0998 19.3214 22.1875 19.3214C22.2752 19.3214 22.3376 19.3444 22.411 19.416ZM28.8034 19.4297L29.3677 18.9355L28.8035 19.4297C28.8706 19.5064 28.8828 19.56 28.8773 19.6291L28.3463 26.3589C28.3462 26.359 28.3462 26.3592 28.3462 26.3594C28.34 26.4342 28.3172 26.4838 28.253 26.5412L28.7534 27.0999L28.253 26.5412C28.1868 26.6005 28.1246 26.625 28.0312 26.625H27.9829C27.9067 26.6156 27.8516 26.5867 27.7903 26.5168C27.7231 26.4401 27.711 26.3864 27.7164 26.3174L28.2477 19.5852C28.2531 19.5171 28.2733 19.4653 28.3533 19.3988C28.4344 19.3313 28.5006 19.3127 28.5894 19.3193C28.677 19.3259 28.7366 19.3533 28.8034 19.4297ZM10.2097 26.5168C10.1484 26.5867 10.0933 26.6156 10.0171 26.625H9.96875C9.87539 26.625 9.81319 26.6005 9.74699 26.5412C9.68294 26.4839 9.66008 26.4344 9.65381 26.3597C9.65379 26.3594 9.65376 26.3592 9.65374 26.3589L9.12268 19.6291C9.11723 19.56 9.12939 19.5063 9.19655 19.4297C9.2634 19.3533 9.323 19.3259 9.41057 19.3193C9.49936 19.3127 9.56563 19.3313 9.64673 19.3988L10.1265 18.8223L9.64674 19.3988C9.72672 19.4653 9.74695 19.5171 9.75232 19.5852L10.2836 26.3174C10.289 26.3864 10.2769 26.4401 10.2097 26.5168Z" stroke="#242424" stroke-width="1.5"/>
</svg>
