<svg width="27" height="21" viewBox="0 0 27 21" fill="none" xmlns="http://www.w3.org/2000/svg">
<path fill-rule="evenodd" clip-rule="evenodd" d="M15.589 5.44514H1.15714C0.85025 5.44514 0.555926 5.3222 0.338919 5.10338C0.121913 4.88456 0 4.58777 0 4.27831C0 3.96885 0.121913 3.67207 0.338919 3.45324C0.555926 3.23442 0.85025 3.11149 1.15714 3.11149H15.589C15.8412 2.21549 16.3763 1.42689 17.1132 0.865355C17.8501 0.303819 18.7486 0 19.6722 0C20.5958 0 21.4943 0.303819 22.2312 0.865355C22.9681 1.42689 23.5032 2.21549 23.7554 3.11149H25.8429C26.1498 3.11149 26.4441 3.23442 26.6611 3.45324C26.8781 3.67207 27 3.96885 27 4.27831C27 4.58777 26.8781 4.88456 26.6611 5.10338C26.4441 5.3222 26.1498 5.44514 25.8429 5.44514H23.7538C23.5012 6.3405 22.966 7.12839 22.2293 7.68939C21.4926 8.25038 20.5946 8.55389 19.6714 8.55389C18.7483 8.55389 17.8503 8.25038 17.1136 7.68939C16.3769 7.12839 15.8416 6.3405 15.589 5.44514ZM17.7429 4.27831C17.7429 3.76254 17.946 3.2679 18.3077 2.9032C18.6694 2.5385 19.1599 2.33361 19.6714 2.33361C20.1829 2.33361 20.6735 2.5385 21.0351 2.9032C21.3968 3.2679 21.6 3.76254 21.6 4.27831C21.6 4.79408 21.3968 5.28872 21.0351 5.65343C20.6735 6.01813 20.1829 6.22302 19.6714 6.22302C19.1599 6.22302 18.6694 6.01813 18.3077 5.65343C17.946 5.28872 17.7429 4.79408 17.7429 4.27831ZM11.4125 17.8913H25.8429C26.1498 17.8913 26.4441 17.7683 26.6611 17.5495C26.8781 17.3307 27 17.0339 27 16.7244C27 16.415 26.8781 16.1182 26.6611 15.8994C26.4441 15.6805 26.1498 15.5576 25.8429 15.5576H11.4125C11.1604 14.6616 10.6252 13.873 9.88833 13.3115C9.15143 12.7499 8.25299 12.4461 7.32934 12.4461C6.40569 12.4461 5.50725 12.7499 4.77035 13.3115C4.03346 13.873 3.49833 14.6616 3.24617 15.5576H1.15714C0.85025 15.5576 0.555926 15.6805 0.338919 15.8994C0.121913 16.1182 0 16.415 0 16.7244C0 17.0339 0.121913 17.3307 0.338919 17.5495C0.555926 17.7683 0.85025 17.8913 1.15714 17.8913H3.24617C3.49879 18.7866 4.03401 19.5745 4.77071 20.1355C5.50741 20.6965 6.4054 21 7.32857 21C8.25174 21 9.14974 20.6965 9.88643 20.1355C10.6231 19.5745 11.1584 18.7866 11.411 17.8913M5.4 16.7244C5.4 16.2087 5.60319 15.714 5.96487 15.3493C6.32654 14.9846 6.81708 14.7797 7.32857 14.7797C7.84006 14.7797 8.3306 14.9846 8.69228 15.3493C9.05396 15.714 9.25714 16.2087 9.25714 16.7244C9.25714 17.2402 9.05396 17.7348 8.69228 18.0995C8.3306 18.4642 7.84006 18.6691 7.32857 18.6691C6.81708 18.6691 6.32654 18.4642 5.96487 18.0995C5.60319 17.7348 5.4 17.2402 5.4 16.7244Z" fill="#242424"/>
</svg>
