<svg width="144" height="63" viewBox="0 0 144 63" fill="none" xmlns="http://www.w3.org/2000/svg">
<path d="M13.6 46.12C12.1067 46.12 10.6 45.9733 9.08 45.68C7.58667 45.36 6.2 44.9067 4.92 44.32C3.66667 43.7067 2.65333 42.9733 1.88 42.12C1.10667 41.24 0.72 40.2267 0.72 39.08C0.72 37.6133 1.18667 36.44 2.12 35.56C3.05333 34.68 4.14667 34.2667 5.4 34.32C6.38667 34.3467 7.37333 34.56 8.36 34.96C9.34667 35.3333 10.3467 35.7067 11.36 36.08C12.4 36.4533 13.44 36.64 14.48 36.64C15.52 36.64 16.24 36.5067 16.64 36.24C17.04 35.9733 17.24 35.6133 17.24 35.16C17.24 34.6267 16.96 34.1867 16.4 33.84C15.84 33.4933 15.1333 33.2267 14.28 33.04L12.32 32.56C10.2933 32.08 8.48 31.5467 6.88 30.96C5.28 30.3467 4.01333 29.5467 3.08 28.56C2.17333 27.5467 1.72 26.2 1.72 24.52C1.72 22.68 2.22667 21.1867 3.24 20.04C4.25333 18.8667 5.62667 18.0133 7.36 17.48C9.09333 16.9467 11.0267 16.68 13.16 16.68C15.3467 16.68 17.2667 16.9067 18.92 17.36C20.5733 17.8133 21.8533 18.4667 22.76 19.32C23.6933 20.1733 24.16 21.2133 24.16 22.44C24.16 23.7467 23.8 24.7733 23.08 25.52C22.3867 26.24 21.4533 26.6 20.28 26.6C19.5067 26.6 18.6933 26.4667 17.84 26.2C17.0133 25.9333 16.1333 25.68 15.2 25.44C14.2933 25.1733 13.32 25.04 12.28 25.04C11.3467 25.04 10.64 25.1867 10.16 25.48C9.68 25.7467 9.44 26.1067 9.44 26.56C9.44 27.12 9.76 27.5333 10.4 27.8C11.04 28.0667 12.0933 28.3867 13.56 28.76L15.8 29.28C17.64 29.7333 19.2533 30.28 20.64 30.92C22.0267 31.56 23.1067 32.4 23.88 33.44C24.6533 34.48 25.04 35.84 25.04 37.52C25.04 39.5467 24.56 41.2 23.6 42.48C22.64 43.7333 21.3067 44.6533 19.6 45.24C17.8933 45.8267 15.8933 46.12 13.6 46.12ZM33.1822 46.08C31.9555 46.08 30.9555 45.7067 30.1822 44.96C29.4089 44.2133 29.0222 43.2667 29.0222 42.12V20.96C29.0222 19.7867 29.3955 18.8 30.1422 18C30.9155 17.2 31.9289 16.8 33.1822 16.8C34.5155 16.8 35.5555 17.2 36.3022 18C37.0755 18.7733 37.4622 19.7333 37.4622 20.88V42.12C37.4622 43.2667 37.0489 44.2133 36.2222 44.96C35.4222 45.7067 34.4089 46.08 33.1822 46.08Z" fill="#242424"/>
<path d="M47.64 45.92C46.04 45.92 44.8133 45.48 43.96 44.6C43.1333 43.6933 42.72 42.5333 42.72 41.12C42.72 40.2933 42.88 39.5733 43.2 38.96C43.5467 38.3467 43.96 37.8 44.44 37.32C44.92 36.84 45.3867 36.3867 45.84 35.96L55.48 26.52L55.24 25.76H47.24C46.0133 25.76 45 25.3867 44.2 24.64C43.4267 23.8667 43.0133 22.8 42.96 21.44C42.9333 20.1067 43.3333 19.0267 44.16 18.2C44.9867 17.3733 46.0133 16.96 47.24 16.96H60.56C62.08 16.96 63.2133 17.3467 63.96 18.12C64.7067 18.8933 65.08 19.9867 65.08 21.4C65.08 22.4133 64.8 23.3733 64.24 24.28C63.68 25.16 63.0533 25.9333 62.36 26.6L52.12 36.68C51.8 37 51.6533 37.3467 51.68 37.72C51.7067 38.0667 51.8667 38.3333 52.16 38.52C52.48 38.7067 52.88 38.7067 53.36 38.52C54.24 38.1467 55.0667 37.76 55.84 37.36C56.6133 36.96 57.3733 36.6267 58.12 36.36C58.8933 36.0667 59.6933 35.92 60.52 35.92C62.3333 35.92 63.6933 36.4133 64.6 37.4C65.5067 38.36 65.96 39.5467 65.96 40.96C65.96 42.3733 65.5067 43.56 64.6 44.52C63.6933 45.4533 62.3333 45.92 60.52 45.92H47.64Z" fill="#FED112"/>
<path d="M95.28 20.76C95.28 19.5333 95.6533 18.5867 96.4 17.92C97.1733 17.2267 98.16 16.88 99.36 16.88C100.613 16.88 101.613 17.2267 102.36 17.92C103.107 18.5867 103.48 19.5333 103.48 20.76V37.8C103.48 38.3067 103.613 38.6667 103.88 38.88C104.147 39.0667 104.587 38.9867 105.2 38.64C106.533 37.8667 107.72 37.2533 108.76 36.8C109.8 36.32 110.947 36.08 112.2 36.08C113.933 36.08 115.24 36.5333 116.12 37.44C117 38.3467 117.44 39.5333 117.44 41C117.44 42.5733 116.96 43.7867 116 44.64C115.067 45.4933 113.56 45.92 111.48 45.92H103.24C101.48 45.92 100.013 45.72 98.84 45.32C97.6667 44.8933 96.7733 44.1333 96.16 43.04C95.5733 41.9467 95.28 40.36 95.28 38.28V20.76ZM130.048 45.92C128.741 45.92 127.488 45.8 126.288 45.56C125.114 45.32 124.074 44.8667 123.168 44.2C122.288 43.5067 121.581 42.52 121.048 41.24C120.541 39.9333 120.288 38.2267 120.288 36.12C120.288 34.2267 120.541 32.6 121.048 31.24C121.554 29.88 122.154 28.8 122.848 28C123.568 27.2 124.221 26.7067 124.808 26.52L124.608 25.76H123.928C122.701 25.76 121.728 25.3733 121.008 24.6C120.314 23.8 119.954 22.72 119.928 21.36C119.901 20.0267 120.248 18.96 120.968 18.16C121.714 17.36 122.701 16.96 123.928 16.96H138.288C141.141 16.96 142.568 18.2933 142.568 20.96C142.568 22.16 142.221 23.12 141.528 23.84C140.834 24.56 139.754 24.92 138.288 24.92H130.008C129.021 24.92 128.528 25.4933 128.528 26.64V29.64C129.861 29.3467 131.248 29 132.688 28.6C134.154 28.2 135.541 28 136.848 28C138.101 28 139.034 28.28 139.648 28.84C140.288 29.3733 140.608 30.1067 140.608 31.04C140.608 32 140.288 32.76 139.648 33.32C139.034 33.8533 138.101 34.1333 136.848 34.16C135.541 34.1867 134.154 34 132.688 33.6C131.221 33.2 129.821 32.8533 128.488 32.56V37.8C128.488 38.3067 128.621 38.6667 128.888 38.88C129.181 39.0667 129.634 38.9867 130.248 38.64C131.581 37.8667 132.888 37.2533 134.168 36.8C135.448 36.32 136.701 36.08 137.928 36.08C139.661 36.08 140.968 36.5333 141.848 37.44C142.754 38.3467 143.208 39.5333 143.208 41C143.208 42.5733 142.728 43.7867 141.768 44.64C140.834 45.4933 139.314 45.92 137.208 45.92H130.048Z" fill="#242424"/>
<path d="M73.64 17.08C72.04 17.08 70.8133 17.52 69.96 18.4C69.1333 19.3067 68.72 20.4667 68.72 21.88C68.72 22.7067 68.88 23.4267 69.2 24.04C69.5467 24.6533 69.96 25.2 70.44 25.68C70.92 26.16 71.3867 26.6133 71.84 27.04L81.48 36.48L81.24 37.24L73.24 37.24C72.0133 37.24 71 37.6133 70.2 38.36C69.4267 39.1333 69.0133 40.2 68.96 41.56C68.9333 42.8933 69.3333 43.9733 70.16 44.8C70.9867 45.6267 72.0133 46.04 73.24 46.04L86.56 46.04C88.08 46.04 89.2133 45.6533 89.96 44.88C90.7067 44.1067 91.08 43.0133 91.08 41.6C91.08 40.5867 90.8 39.6267 90.24 38.72C89.68 37.84 89.0533 37.0667 88.36 36.4L78.12 26.32C77.8 26 77.6533 25.6533 77.68 25.28C77.7067 24.9333 77.8667 24.6667 78.16 24.48C78.48 24.2933 78.88 24.2933 79.36 24.48C80.24 24.8533 81.0667 25.24 81.84 25.64C82.6133 26.04 83.3733 26.3733 84.12 26.64C84.8933 26.9333 85.6933 27.08 86.52 27.08C88.3333 27.08 89.6933 26.5867 90.6 25.6C91.5067 24.64 91.96 23.4533 91.96 22.04C91.96 20.6267 91.5067 19.44 90.6 18.48C89.6933 17.5467 88.3333 17.08 86.52 17.08L73.64 17.08Z" fill="#FED112"/>
</svg>
